<svg width="150" height="119" viewBox="0 0 150 119" fill="none" xmlns="http://www.w3.org/2000/svg">
<path d="M90.5358 59.1007C80.1184 52.012 63.9485 39.8278 53.3005 39.8306C42.6525 39.8334 34.0229 48.4676 34.0257 59.1156C34.0285 69.7636 42.6627 78.3932 53.3107 78.3904C63.9587 78.3876 79.9005 66.4166 90.5358 59.1007Z" fill="#E44201"/>
<circle cx="51.9758" cy="59.111" r="10.4156" transform="rotate(-90.0151 51.9758 59.111)" fill="black"/>
<path d="M90.5563 59.0793C97.645 48.6618 109.829 32.492 109.826 21.844C109.824 11.196 101.189 2.56635 90.5414 2.56915C79.8934 2.57195 71.2637 11.2061 71.2665 21.8541C71.2693 32.5021 83.2404 48.444 90.5563 59.0793Z" fill="#E44201"/>
<circle cx="90.5465" cy="20.5193" r="10.4156" transform="rotate(-0.015069 90.5465 20.5193)" fill="black"/>
<path d="M90.1904 58.7702C80.647 66.998 64.6929 79.4633 61.9397 89.7492C59.1865 100.035 65.2929 110.605 75.5788 113.359C85.8647 116.112 96.435 110.005 99.1882 99.7195C101.941 89.4336 94.5044 70.9366 90.1904 58.7702Z" fill="#E44201"/>
<circle cx="80.2198" cy="96.0189" r="10.4156" transform="rotate(-165.015 80.2198 96.0189)" fill="black"/>
<path d="M90.0751 58.9756C77.2217 45.2892 47.9446 18.1307 33.6634 18.9876C19.3822 19.8445 18.9065 30.7698 20.4538 36.1254" stroke="black" stroke-width="2" stroke-linecap="round"/>
<path d="M90.4244 58.5363C102.322 62.6873 121.094 70.2713 131.378 67.5126C141.663 64.754 147.764 54.1805 145.005 43.8961C142.247 33.6116 131.673 27.5107 121.389 30.2693C111.104 33.0279 98.8038 48.7171 90.4244 58.5363Z" fill="#E44201"/>
<circle cx="127.668" cy="48.5465" r="10.4156" transform="rotate(74.9849 127.668 48.5465)" fill="black"/>
<path d="M90.4322 58.6188C79.7211 49.0979 58.2276 27.4853 57.9419 17.2027C57.6563 6.92004 63.5355 5.30148 66.5108 5.77753" stroke="black" stroke-width="2" stroke-linecap="round"/>
<path d="M89.9733 56.5463C97.0647 46.1307 109.253 29.9641 109.253 19.3161C109.253 8.66805 100.621 0.0361328 89.9733 0.0361328C79.3253 0.0361328 70.6934 8.66805 70.6934 19.3161C70.6934 29.9641 82.6602 45.9091 89.9733 56.5463Z" fill="#E44201"/>
<ellipse cx="89.9739" cy="17.9859" rx="10.4156" ry="10.4156" fill="black"/>
<path d="M83.5796 5.63063L87.1759 0.236129C91.8112 -0.483138 95.634 0.60243 96.966 1.33502L93.6693 6.72952L96.966 11.7244L85.6775 23.4125L89.074 13.7224L83.5796 5.63063Z" fill="#FFFDEE"/>
</svg>
